<?xml version="1.0" encoding="UTF-8" standalone="no"?>
<!-- Created with Inkscape (http://www.inkscape.org/) -->

<svg
   xmlns:dc="http://purl.org/dc/elements/1.1/"
   xmlns:cc="http://creativecommons.org/ns#"
   xmlns:rdf="http://www.w3.org/1999/02/22-rdf-syntax-ns#"
   xmlns:svg="http://www.w3.org/2000/svg"
   xmlns="http://www.w3.org/2000/svg"
   xmlns:sodipodi="http://sodipodi.sourceforge.net/DTD/sodipodi-0.dtd"
   xmlns:inkscape="http://www.inkscape.org/namespaces/inkscape"
   width="32"
   height="32"
   id="svg2"
   version="1.1"
   inkscape:version="0.48.1 r9760"
   sodipodi:docname="noznice.svg">
  <defs
     id="defs4" />
  <sodipodi:namedview
     id="base"
     pagecolor="#ffffff"
     bordercolor="#666666"
     borderopacity="1.0"
     inkscape:pageopacity="0.0"
     inkscape:pageshadow="2"
     inkscape:zoom="8"
     inkscape:cx="15.492048"
     inkscape:cy="4.902567"
     inkscape:document-units="px"
     inkscape:current-layer="layer1"
     showgrid="false"
     inkscape:window-width="1600"
     inkscape:window-height="819"
     inkscape:window-x="0"
     inkscape:window-y="28"
     inkscape:window-maximized="1" />
  <metadata
     id="metadata7">
    <rdf:RDF>
      <cc:Work
         rdf:about="">
        <dc:format>image/svg+xml</dc:format>
        <dc:type
           rdf:resource="http://purl.org/dc/dcmitype/StillImage" />
        <dc:title></dc:title>
      </cc:Work>
    </rdf:RDF>
  </metadata>
  <g
     inkscape:label="Layer 1"
     inkscape:groupmode="layer"
     id="layer1"
     transform="translate(0,-1020.3622)">
    <path
       inkscape:connector-curvature="0"
       id="path2998"
       d="m 56.703438,1045.6549 -11.666729,-0.1716 0,-2.097 c 0,-3.0999 1.259976,-5.0359 3.277563,-5.0359 2.77156,-0.9133 5.442228,0.013 8.530361,0 4.593203,0 6.340147,-0.2008 6.48096,-0.7452 0.106035,-0.41 0.317581,-2.3801 0.470112,-4.3781 l 0.277336,-3.6327 -4.625669,-0.6924 -4.625664,-0.6924 -1.969306,2.6014 c -0.733126,0.9685 -0.966703,1.5783 -1.066658,1.8928 -0.168081,0.5288 -0.920231,-0.1648 -1.007701,0.6094 0.02721,1.7565 -0.06582,1.2305 -0.035,4.1807 -0.349264,-5.264 0.0901,-4.4965 -2.439241,-4.6785 -0.606634,-0.044 -0.293026,-0.7356 -0.439016,-2.0012 -0.571812,-4.9571 -0.408561,-6.7724 0.651144,-7.2397 0.533634,-0.2354 6.266906,-0.3516 12.7406,-0.2584 l 11.770353,0.1699 0.217122,1.3496 c 0.119422,0.7422 0.119542,2.3426 2.73e-4,3.5565 -0.171063,1.7412 -0.433347,2.2072 -1.242025,2.2072 -0.995038,0 -1.015406,0.217 -0.693037,7.382 0.329031,7.3133 0.321564,7.3853 -0.801668,7.7428 -0.623586,0.1985 -1.359598,0.3029 -1.635585,0.2317 -0.275987,-0.072 -5.751824,-0.2066 -12.168523,-0.3009 z"
       style="fill:#ffe4e1;stroke:#000000;stroke-width:0.1;stroke-miterlimit:4;stroke-opacity:1;stroke-dasharray:none"
       sodipodi:nodetypes="scsccsscccssccsssscssssscs" />
    <path
       inkscape:connector-curvature="0"
       id="path3792"
       d="m -54.234594,1014.7652 c -0.311718,0.064 -0.4475,0.1172 -0.674717,0.2408 -0.343003,0.1856 -0.760963,0.6021 -0.87986,0.8759 -0.179535,0.4126 -0.118495,1.0779 0.144387,1.5806 0.136616,0.2614 0.402245,0.5971 0.659841,0.8339 0.528785,0.4867 1.221231,0.7539 2.235085,0.8623 0.353899,0.037 1.235462,0.039 1.432803,0 0.186043,-0.039 0.816795,-6e-4 1.155419,0.062 0.597231,0.1112 1.23183,0.3392 1.823554,0.6544 0.410325,0.2186 1.239575,0.7816 1.337782,0.9082 0.02487,0.032 0.120928,0.1293 0.214874,0.2187 0.09458,0.089 0.39923,0.3985 0.678429,0.688 0.279095,0.2894 0.632175,0.6541 0.784378,0.8102 0.495015,0.5079 0.661587,0.694 0.664912,0.7421 0.0038,0.066 -0.376535,1.3118 -0.413917,1.3544 -0.01344,0.022 -0.178263,0.071 -0.35915,0.1137 l -0.328664,0.079 -0.719566,-0.065 c -1.160525,-0.1041 -1.780795,-0.1288 -2.345608,-0.092 -0.499857,0.032 -0.501831,0.032 -0.823873,0.1579 -0.892029,0.3517 -2.713621,1.2818 -4.186939,2.1372 -1.450507,0.8426 -1.998907,1.2561 -2.211089,1.6672 -0.122637,0.2365 -0.151292,0.3696 -0.136447,0.6153 0.02334,0.3728 0.183675,0.6757 0.51816,0.9779 0.707085,0.6394 1.699933,0.8656 2.924603,0.6656 0.689656,-0.1137 1.173581,-0.2568 1.914658,-0.5716 1.134427,-0.4817 1.888996,-0.9488 2.669867,-1.6534 0.677441,-0.6111 1.353195,-1.4425 1.560442,-1.9201 0.08331,-0.1914 0.273417,-0.4044 0.437423,-0.4882 0.123896,-0.064 0.217024,-0.083 0.644033,-0.133 0.556366,-0.058 0.751036,-0.099 1.149305,-0.2251 0.276607,-0.09 0.494281,-0.2011 0.641724,-0.3255 0.109481,-0.09 1.829648,-1.1926 1.867944,-1.195 0.02569,0 1.252604,0.2402 1.758469,0.3472 0.156118,0.033 1.921284,0.378 2.372354,0.4639 0.04013,0.013 0.550731,0.1077 1.134923,0.2201 1.607647,0.3121 3.219338,0.5989 3.619872,0.6442 0.08056,0.013 0.268736,0.034 0.420636,0.058 0.507641,0.076 1.114198,0.1564 1.377074,0.1842 0.403497,0.043 1.373917,-0.013 2.162965,-0.1204 0.195486,-0.028 0.535856,-0.074 0.755232,-0.1029 0.482737,-0.064 1.033667,-0.1783 1.579617,-0.326 0.623791,-0.1736 1.333049,-0.4564 1.306259,-0.5222 -0.0087,-0.018 -0.450006,-0.12 -0.985883,-0.2321 -0.535797,-0.1112 -2.016518,-0.4217 -3.290467,-0.6889 -1.273912,-0.2673 -2.525758,-0.5256 -2.781863,-0.5747 -0.256098,-0.048 -0.537832,-0.1077 -0.62632,-0.1312 -0.2452,-0.065 -2.064008,-0.4434 -2.228575,-0.4635 -0.08056,-0.012 -0.269485,-0.047 -0.422204,-0.085 -0.152248,-0.037 -0.355934,-0.083 -0.452236,-0.1042 -0.09605,-0.02 -0.207482,-0.044 -0.247762,-0.056 -0.04013,-0.013 -0.387731,-0.085 -0.772175,-0.1659 -1.188504,-0.2496 -1.248161,-0.2637 -1.261468,-0.2968 -0.008,-0.018 0.115194,-0.1136 0.271614,-0.2138 0.156796,-0.098 0.545866,-0.347 0.865137,-0.5494 0.319121,-0.2026 0.835339,-0.532 1.146885,-0.7325 0.311696,-0.2001 0.65974,-0.4224 0.773707,-0.4937 0.114296,-0.073 1.264672,-0.8027 2.556681,-1.626 1.292111,-0.823 2.492251,-1.5862 2.667006,-1.696 0.17578,-0.1101 0.423562,-0.2709 0.552412,-0.3583 0.127703,-0.088 0.299051,-0.1956 0.379317,-0.2395 0.08052,-0.045 0.198509,-0.1208 0.262855,-0.1714 0.06492,-0.05 0.173828,-0.1205 0.24302,-0.1553 0.174856,-0.09 2.134946,-1.342 2.177567,-1.3899 0.02204,-0.036 0.0089,-0.071 -0.104404,-0.205 -0.148685,-0.1769 -0.15434,-0.1797 -0.418953,-0.2085 -0.510662,-0.056 -2.140504,0.02 -3.339423,0.1536 l -0.613794,0.069 -0.499278,0.2889 c -0.274563,0.1593 -0.804768,0.4707 -1.178164,0.6929 -0.373205,0.2224 -1.252456,0.7412 -1.953844,1.1532 -0.701286,0.4119 -2.035727,1.2002 -2.965473,1.7514 -0.929722,0.5515 -1.877467,1.1135 -2.106092,1.2491 -0.228401,0.1353 -0.440507,0.2618 -0.471032,0.2805 -0.03084,0.019 -0.473527,0.2771 -0.98422,0.5741 -0.510969,0.2971 -1.015289,0.6032 -1.120853,0.6804 l -0.191476,0.1409 -0.218553,-0.036 c -0.505689,-0.085 -1.248824,-0.3181 -1.921583,-0.6023 -0.893183,-0.3773 -1.488567,-0.6918 -2.421489,-1.2788 -0.566258,-0.3564 -1.203965,-0.9732 -1.734114,-1.6773 -0.247908,-0.3293 -0.621123,-0.8989 -0.721608,-1.1015 -0.129574,-0.2613 -0.722059,-0.8432 -1.204435,-1.1831 -0.320651,-0.226 -0.818761,-0.51 -1.072551,-0.6116 -0.523558,-0.2098 -1.786041,-0.2754 -2.451646,-0.1277 z m 1.455467,0.5063 c 0.135647,0.013 0.367067,0.056 0.515177,0.096 0.723834,0.1921 1.250592,0.5507 1.734084,1.1806 0.253336,0.3303 0.288056,0.4334 0.264334,0.7894 -0.02386,0.3602 -0.128331,0.5283 -0.471237,0.7545 -0.712444,0.4731 -2.096242,0.4725 -3.173844,0 -0.427291,-0.1879 -0.930422,-0.5823 -1.110805,-0.8707 -0.207383,-0.3313 -0.262031,-0.7844 -0.133706,-1.1063 0.146671,-0.3689 0.567145,-0.6467 1.166327,-0.7738 0.262193,-0.055 0.942794,-0.093 1.209043,-0.06 z m 4.15527,10.2692 c 0.233695,0.092 0.382192,0.2042 0.621077,0.4634 0.100808,0.1101 0.254325,0.2734 0.342132,0.3653 0.378472,0.397 0.298795,0.6409 -0.506977,1.5489 -0.52491,0.5916 -0.7606,0.7944 -1.32669,1.1389 -1.038104,0.6322 -2.520184,1.1561 -3.58548,1.2677 -0.770718,0.08 -1.396755,-0.018 -1.918678,-0.3022 -0.217077,-0.1184 -0.316853,-0.2131 -0.406957,-0.386 -0.218537,-0.4193 -0.180606,-0.8468 0.103233,-1.162 0.110285,-0.1205 0.57509,-0.3839 1.727972,-0.9731 0.0774,-0.039 0.163859,-0.089 0.194697,-0.1066 0.03151,-0.02 0.155776,-0.084 0.279021,-0.1408 0.122235,-0.059 0.517777,-0.2569 0.877631,-0.4415 0.360001,-0.1843 0.7234,-0.3687 0.807856,-0.4098 1.736042,-0.8441 1.911423,-0.9137 2.32736,-0.928 0.23547,-0.014 0.298531,0 0.464465,0.069 z"
       style="fill:#ffe4e1;fill-opacity:1;stroke:#000000;stroke-width:0.09999997;stroke-linecap:round;stroke-linejoin:round;stroke-miterlimit:4;stroke-opacity:1;stroke-dasharray:none" />
    <g
       id="g3821"
       transform="translate(-3,0)">
      <path
         sodipodi:nodetypes="scccscsccssccccccccccsscccsccscccs"
         style="fill:#ffe4e1;fill-opacity:1;stroke:#000000;stroke-width:0.1;stroke-miterlimit:4;stroke-opacity:1;stroke-dasharray:none"
         d="m 16.490044,1050.0778 c -2.961104,-0.1597 -4.156648,-0.3748 -4.690658,-0.8441 -0.245644,-0.2159 -0.294804,-0.3136 -0.26387,-0.5246 0.02091,-0.1426 -0.03084,-0.4406 -0.114997,-0.6622 -0.08416,-0.2217 -0.166609,-0.6549 -0.183226,-0.9627 l -0.03021,-0.5596 0.960539,-0.7353 c 1.062979,-0.8137 1.003406,-0.6962 0.875746,-1.7274 -0.152933,-4.9329 -0.05252,0.047 0.218287,-7.9968 0.04203,-0.1202 0.09821,-1.0641 0.124837,-2.0975 0.02663,-1.0335 0.08285,-2.7836 0.124941,-3.8892 0.04209,-1.1056 0.07788,-2.1084 0.07954,-2.2286 0.0017,-0.1202 0.02926,-0.3202 0.06133,-0.4445 0.05015,-0.1943 -7.67e-4,-0.2752 -0.363903,-0.5783 -0.467146,-0.3899 -0.9937,-0.7707 -1.623143,-1.1738 -0.243158,-0.1558 -0.436989,-0.3534 -0.468049,-0.4773 -0.124559,-0.4967 0.248241,-1.4963 0.635329,-1.7035 0.453589,-0.2429 14.476847,-0.112 15.318026,0.1429 1.112136,0.029 1.018629,0.8724 0.972721,1.861 -0.02169,0.065 -0.280535,0.2261 -0.575209,0.3589 -0.568779,0.2564 -1.42494,0.9626 -1.533877,1.2651 -0.03592,0.1 -0.03271,0.9876 0.0071,1.9731 0.03984,0.9853 0.10604,3.0814 0.147102,4.6578 0.04646,1.784 0.109263,2.9009 0.166305,2.958 0.311927,6.5571 -0.03038,3.3952 0.02529,7.6786 -0.200461,0.7565 -0.196286,0.8134 0.08178,1.1143 0.144329,0.1563 0.285424,0.2841 0.313544,0.2841 0.02812,0 0.345658,0.1868 0.705639,0.4151 l 0.65451,0.4152 -0.05062,0.7993 c -0.04173,0.659 -0.02441,0.8451 0.09866,1.0598 0.140875,0.2456 0.140849,0.2732 -4.37e-4,0.489 -0.379172,0.5792 -1.476402,0.8557 -4.207048,1.0604 -1.548559,0.116 -5.880968,0.1583 -7.466009,0.073 z"
         id="path3807"
         inkscape:connector-curvature="0" />
      <g
         transform="matrix(0.9613127,-0.27545941,0.27545941,0.9613127,-277.26903,40.293323)"
         id="g3769">
        <path
           style="fill:#ffe4e1;fill-opacity:1;stroke:#000000;stroke-width:0.1;stroke-linecap:round;stroke-linejoin:round;stroke-miterlimit:4;stroke-opacity:1;stroke-dasharray:none"
           d="m 5.3688409,1033.1735 c 0,0 -4.87275915,-3.773 -3.4208136,-5.0507 1.2329287,-1.085 3.8883125,4.6503 3.8883125,4.6503 l 13.3480302,15.8903 z"
           id="path2991"
           inkscape:connector-curvature="0"
           sodipodi:nodetypes="csccc" />
        <path
           style="fill:#ffffff;fill-opacity:1;stroke:#000000;stroke-width:0.1;stroke-linecap:round;stroke-linejoin:round;stroke-miterlimit:4;stroke-opacity:1;stroke-dasharray:none"
           d="m 4.6789643,1031.7785 c 0,0 -2.8552233,-2.86 -2.4411988,-3.1872 0.382208,-0.302 2.4411988,3.1872 2.4411988,3.1872 z"
           id="path3761"
           inkscape:connector-curvature="0"
           sodipodi:nodetypes="csc" />
      </g>
      <rect
         rx="2.75"
         ry="2.75"
         transform="matrix(0.25640987,0.96656814,-0.96656814,0.25640987,0,0)"
         y="241.65213"
         x="1004.0929"
         height="9.5"
         width="5.5"
         id="rect3819"
         style="fill:#ffe4e1;fill-opacity:1;stroke:none" />
    </g>
  </g>
</svg>
